<?xml version="1.0" standalone="no"?>
<!-- Generator: Adobe Fireworks 10, Export SVG Extension by Aaron Beall (http://fireworks.abeall.com) . Version: 0.6.1  -->
<!DOCTYPE svg PUBLIC "-//W3C//DTD SVG 1.1//EN" "http://www.w3.org/Graphics/SVG/1.1/DTD/svg11.dtd">
<svg id="bulle" viewBox="0 0 516 416" style="background-color:#ffffff00" version="1.1"
	xmlns="http://www.w3.org/2000/svg" xmlns:xlink="http://www.w3.org/1999/xlink" xml:space="preserve"
	x="0px" y="0px" width="516px" height="416px"
>
	<defs>
		<linearGradient id="gradient1" x1="51.1673%" y1="5.0725%" x2="68.9327%" y2="98.5163%">
			<stop stop-color="#313140" stop-opacity="1" offset="0%"/>
			<stop stop-color="#0f0f1e" stop-opacity="1" offset="100%"/>
		</linearGradient>
		<radialGradient id="gradient2" cx="60.9613%" cy="-2.6942%" r="92.8469%">
			<stop stop-color="#99ccff" stop-opacity="0.2" offset="0%"/>
			<stop stop-color="#99ccff" stop-opacity="0" offset="100%"/>
		</radialGradient>
		<linearGradient id="gradient3" x1="51.1673%" y1="5.0725%" x2="68.9327%" y2="98.5163%">
			<stop stop-color="#bfcfff" stop-opacity="0.8078" offset="0%"/>
			<stop stop-color="#bfdfff" stop-opacity="0" offset="100%"/>
		</linearGradient>
	</defs>
	<path id="Ellipse" d="M 27.0433 322.4561 C 4.713 282.8009 -17.6172 61.1425 20.9531 21.4883 C 60.0662 -18.7242 482.3403 -3.2666 514.249 74.3606 C 523.7134 97.3863 492.8074 298.0943 469.5884 326.5232 C 442.183 360.0767 335.6069 371.2611 335.6069 371.2611 C 335.6069 371.2611 341.6969 396.6807 345.7569 416 C 313.2766 401.7649 286.8863 373.2952 286.8863 373.2952 C 286.8863 373.2952 55.7475 373.4294 27.0433 322.4561 Z" fill="#000000"/>
	<path id="Ellipse2" d="M 28.0433 321.4561 C 5.713 281.8009 -16.6172 62.1425 21.9531 22.4883 C 61.0662 -17.7242 481.3403 -2.2666 513.249 75.3606 C 522.7134 98.3863 491.8074 297.0943 468.5884 325.5232 C 441.183 359.0767 334.6069 370.2611 334.6069 370.2611 C 334.6069 370.2611 340.6969 395.6807 344.7569 415 C 312.2766 400.7649 287.8863 372.2952 287.8863 372.2952 C 287.8863 372.2952 56.7475 372.4294 28.0433 321.4561 Z" fill="url(#gradient1)"/>
	<path id="soft%20light" d="M 29.3299 321.3225 C 7.2208 282.0606 -14.8884 62.5966 23.3002 23.3347 C 62.0259 -16.4798 480.1191 -1.175 511.7118 75.6839 C 521.0825 98.4815 490.4826 297.2026 467.4935 325.3494 C 440.3595 358.571 333.1796 369.5583 333.1796 369.5583 C 333.1796 369.5583 339.2552 393.4108 343.275 412.5385 C 311.1162 398.4444 286.6003 371.6583 286.6003 371.6583 C 286.6003 371.6583 57.7501 371.7915 29.3299 321.3225 Z" fill="url(#gradient2)"/>
	<path id="stroke" d="M 29.0433 320.4561 C 6.713 280.8009 -15.6172 63.1425 22.9531 23.4883 C 62.0662 -16.7242 480.3403 -1.2666 512.249 76.3606 C 521.7134 99.3863 490.8074 296.0943 467.5884 324.5232 C 440.183 358.0767 333.6069 369.2611 333.6069 369.2611 C 333.6069 369.2611 339.6969 393.6807 343.7569 413 C 311.2766 398.7649 288.8863 371.2952 288.8863 371.2952 C 288.8863 371.2952 57.7475 371.4294 29.0433 320.4561 ZM 28.0433 321.4561 C 56.7475 372.4294 287.8863 372.2952 287.8863 372.2952 C 287.8863 372.2952 312.2766 400.7649 344.7569 415 C 340.6969 395.6807 334.6069 370.2611 334.6069 370.2611 C 334.6069 370.2611 441.183 359.0767 468.5884 325.5232 C 491.8074 297.0943 522.7134 98.3863 513.249 75.3606 C 481.3403 -2.2666 61.0662 -17.7242 21.9531 22.4883 C -16.6172 62.1425 5.713 281.8009 28.0433 321.4561 Z" fill="url(#gradient3)"/>
	<g>
		<path d="M 71.4772 61.0624 L 61.9375 61.0624 C 61.9375 55.1294 62.1175 44.6595 71.4772 43.2635 L 71.4772 35.0624 C 57.0651 38.3775 53.0625 49.0219 53.0625 62.4866 L 53.0625 79.9374 L 71.4772 79.9374 L 71.4772 61.0624 L 71.4772 61.0624 ZM 41.7586 61.0624 L 31.9375 61.0624 C 31.9375 55.1294 32.1228 44.6595 41.7586 43.2635 L 41.7586 35.0624 C 27.0651 38.3775 23.0625 49.0219 23.0625 62.4866 L 23.0625 79.9374 L 41.7586 79.9374 L 41.7586 61.0624 L 41.7586 61.0624 Z" fill="#d53364"/>
	</g>
</svg>