<svg width="1344" height="564" viewBox="0 0 1344 564" xmlns="http://www.w3.org/2000/svg"><title>fond</title><g fill="none" fill-rule="evenodd"><g stroke="#566B79"><path d="M439.555 395.667s-7.623-5.24-11.717 4.018c-4.094 9.257 9.07 20.466 46.698 23.847 37.63 3.38 50.642-2.386 50.642-11.455 0-6.27-6.554-8.88-6.554-8.88l2.328-6.01s27.51 6.854 15.867 30.213c-11.65 23.358-88.58 3.868-88.58 3.868s-45.42-18.646-39.04-34.624c6.38-15.98 30.77-11.96 30.77-11.96l2.59-10.385s-46.27 0-52.63 16.12c-6.37 16.13 9.37 43.62 70.18 54.19s89.6 2.78 92.64-12.26c3.04-15.04-2.44-25.56-12.13-32.67-9.69-7.12-17.56-8-17.56-8l-.34-7.29s60.85 17.33 47.77 54.54c-13.09 37.21-83.71 29.16-128.7 16.69-44.99-12.47-71.13-15.16-75.45-49.93-4.32-34.78 77.45-37.42 77.45-37.42M248 308.16s-6.797-38.06 34.126-39.92c40.92-1.86 49.902 31.24 114.202 32.53 64.3 1.29 82.74-34.87 117.842-37.28 35.1-2.41 52.44 26.06 52.44 26.06l10.37-15.03s-15.34-24.084-56.74-26.69c-42.725-2.047-58.237 40.06-118.08 41.73-59.84 1.67-91.09-35.35-120.03-30.345-28.94 5-36.52 24.91-36.52 35.07 0 10.15.866 13.13.866 13.13s-9.893-19.9 0-35.02c9.895-15.12 25.21-24.57 50.914-24.57 25.7 0 55.95 32.47 100.96 32.47 45.01 0 86.85-48.24 126.37-48.24s57.75 33.655 57.75 33.655l6.86-6.5s-14.68-35.405-67.48-36.74c-52.805-1.34-78.19 47.34-120.82 47.34-42.63 0-79.29-42.067-118.914-30.49-39.62 11.573-47.62 26.99-47.62 40.974 0 13.984 13.493 27.86 13.493 27.86zm143.66-187.34s14.637 0 9.657 15.42-17.25 20.07-33.57 17.62c-16.314-2.45-78.353-35.3-107.56-13.67-29.2 21.64-21.3 39.71-21.3 39.71s4.654-24.8 26.11-28.12c21.453-3.32 65.212 27.64 100.334 19.83s53.9-16.065 50.17-33.43c-3.73-17.37-6.49-20.006-12.04-21.37-5.54-1.37-11.45 2.436-11.45 2.436s5.19-9.73 14.34-9.73c9.15 0 33.99 10.17 22.54 41.407-11.45 31.236-69.57 36.594-87.71 36.594s-53.67-23.22-73.53-20.35c-19.85 2.86-24.32 12.54-24.32 12.54s7.89-5.71 26.96 1.05c19.07 6.75 31.46 24.24 70.9 23.25 39.44-.99 95.59-19.12 103.63-50.52 9.15-35.74-21.48-60.81-38.49-51.27-16.15 9.05-13.78 13.55-13.78 13.55"/><path d="M247.264 183.15s26.212 19.54 33.745 33.483c7.53 13.94 10.2 20.13 10.2 20.13M259.2 180.03c.67.892 20.024 17.596 27.945 28.786 7.922 11.19 16.327 27.527 16.327 27.527M287.47 190.83s12.713 14.907 18.44 26.16c5.726 11.252 9.403 22.053 9.403 22.053m-6.283-37.308s10.138 14.173 15.108 23.713c4.97 9.54 7.428 19.49 7.428 19.49m-4.906-37.372s7.09 9.508 11.388 19.91c4.297 10.4 6.903 24.143 6.903 24.143m-4.24-44.66s6.65 7.53 15.5 26.03 10.44 26.34 10.44 26.34m-7.58-54.47s11.74 15.48 18.4 31.6c6.66 16.11 9.61 31.09 9.61 31.09m-7.88-64.89s9.05 14.07 12.58 23.69c3.53 9.62 4.31 13.71 4.31 13.71m-8.49-42.86s3.81 4.38 5.99 9.4c2.19 5.02 3.78 8.06 3.78 8.06m33.9-17.41l42.72-27.51m-41.4 32.49l40.87-25.65m-40.01 34.24l38.84-24.91m-38.31 33.48l38.97-25.04m-39.01 34.26l38.9-25.51m-39.06 35.53l40.71-26.04m-41.37 36.01l49.08-30.9m113.65 33.01s-35.36-32.41-35.36-31.73m43.24 23.75l-30.2-26.91m38.727 20.57l-32.44-29.56m42.12 24.29l-41.68-35.77m50.84 30.982l-50.86-42.86m-30.936 90.24s-11.96 19.68-16.13 56.303c-4.17 36.62-.8 56.52-.8 56.52M527.85 264.4s-9.627 19.33-11.96 36.59c-2.333 17.27-2.48 33.49-2.48 33.49m-10.548-68.07s-9.62 33.17-10.68 62.56c-1.06 29.38.144 44.85.144 44.85m-13.635-96.61s-7.78 26.83-7.78 53.42c0 26.59.87 38.17.87 38.17m-17.19-79.38s-5.61 28.54-5.61 44.985c0 16.45 1.64 33.8 1.64 33.8m-22.223-69.77s-4.78 25.48-4.78 40.117c0 14.64.81 30.09.81 30.09m-19.52-28.183s.05 12.762.05 18.173c0 5.41.955 13.91.955 13.91"/><path d="M427.648 299.1s-10.548 35.963-35.038 52.616c-24.49 16.652-54.234 10.422-60.41 12.954-6.18 2.532-11.054 8.52-11.054 8.52l-2.5-4.854s8.258-6.324 14.76-9.308c6.505-2.984 25.69 5.448 53.11-12.198 27.42-17.645 35.09-47.656 35.09-47.656l-8.72 1.586s-.357 21.548-28.377 39.567c-28.02 18.02-44.96 6.25-56.14 11.39-11.18 5.137-12.56 11.85-12.56 11.85l-3.02-6.083s.83-8.984 16.76-14.14c16.39-5.307 23.83 3.192 45.32-5.686 21.49-8.877 29.58-36.877 29.58-36.877l-11.9-.32s-1.83 22.88-18.59 28.72c-16.76 5.84-33.34.81-46.95 6.98S308.5 350 308.5 350l-3.214-5.41s9.058-12.25 19.595-15.414c10.54-3.162 32.24.258 46.48-6.41 14.25-6.665 15.23-22.472 15.23-22.472l-8.88-.83s-1.08 7.998-13.06 17.307c-11.97 9.31-29.45.64-43.5 6s-17.32 14.9-17.32 14.9m-36.39 61.19s-6.86.76-5.96 7.55c.91 6.79 5.37 6.32 5.37 6.32s2.09 4.02 6.81 2.01c4.72-2 2.96-6.87 2.96-6.87s7.35-4.63 1.42-9.13c-5.92-4.49-10.6.14-10.6.14z"/><path d="M258.29 396.54s-11.296.746-9.552 9.898c1.744 9.15 8.49 7.427 8.49 7.427s-1.62 17.546 12.953 14.9c14.58-2.65 10.53-15.214 10.53-15.214s5.58.28 5.58-4.65c0-4.92-2.59-5.01-2.59-5.01s12-4.55 6.92-16.3c1.82-1.02 5.32-2.37 5.32-2.37s5.36 11.45 2.68 16.69c-2.68 5.23-6.23 6.69-6.23 6.69s6.38 3.75 3.71 10.82-11.47 6.92-11.47 6.92-1.37 17.8-16.55 15.95c-15.18-1.85-16.47-14.47-16.47-14.47s-7.39 3.47-10.82-2.46c-3.42-5.92 3.42-8.77 3.42-8.77s-4.73-4.17-2.36-9.83c2.37-5.66 4.97-8.64 4.97-8.64l-1.65-5.03s-8.07-1.85-11.04 4.5c-2.97 6.35 1.54 14.2 1.54 14.2s-15.25 2.7-9.19 15.49c6.06 12.79 14.86 8.18 14.86 8.18s7.13 22.39 30.33 17.4c23.21-4.99 22.69-17.736 22.69-17.736s9.27.228 10.49-9.48c1.22-9.703-2.37-13.17-2.37-13.17s10.45-2.04 9.11-14.27c-1.344-12.23-7.4-16.066-7.4-16.066l8.86-2.61s7.57 4.13 6.8 14.893c-.76 10.77-7.19 15.72-7.19 15.72s8.75 16.24 1.44 26.254c-7.314 10.01-13.8 7.92-13.8 7.92s-4.3 12.43-14 14.34c-9.7 1.914-21.04 1.61-21.04 1.61l2.51 11.39s27.068.417 31.72-9.206c4.655-9.62 5.98-12.9 5.98-12.9s18.785 2.29 21.99-14.655c3.203-16.948-8.12-25.14-8.12-25.14s10.42-8.114 7.415-17.885c-3-9.77-8.09-14.792-8.09-14.792"/><path d="M244.42 384.847s-14.52-4.916-19.457 7.04c-4.938 11.956 2.395 16.01 2.395 16.01s-20.602-2.426-16.21 18.692c4.39 21.11 26.054 15.32 26.054 15.32s1.472 9.34 10.076 13.25c8.605 3.91 12.996 4.09 12.996 4.09"/><path d="M243.927 379.836s-8.237-8.9-19.847 1.776c-11.61 10.674-3.677 21.16-3.677 21.16s-26.254-.39-21.012 22.67c5.25 23.063 24.68 25.816 24.68 25.816s-.68 1.07-.82 3.876c-.13 2.806 1.46 3.96 1.46 3.96M137.43 93.7c0 29.606 23.954 33.703 25.34 58.256 1.388 24.554-49.638 46.498-47.275 94.197 2.364 47.698 10.217 102.937 58.538 113.327 48.32 10.39 50.06 20.623 50.06 20.623"/><path d="M179.104 63.64s5.506-.178 10.055 3.152c4.54 3.33 41.42 31.92 33.64 78.65-7.79 46.732-60.94 69.392-59.81 100.406 1.12 31.014 7.52 32.044 7.52 32.044m15.99 18.88c-.67 0 10.79 14.75 30.08 11.42s23.69-9.94 23.69-9.94"/><path d="M223.23 116.432s13.763 11.39 20.72-4.812c5.743 1.745 9.06 6.875 10.08 12.488 1.396 7.702-1.535 16.314-8.463 18.338-11.977 3.498-21.39 2.584-21.39 2.584l.567-6.44s19.74 3.52 23.85-5.41c4.107-8.932-1.283-16.748-1.283-16.748s2.93 14.54-5.59 16.747c-8.51 2.2-17.49-1.22-17.49-1.22l-.3-7s3.79 5.25 11.28 3.56c7.48-1.69 12.82-2.81 10.4-14.35m-93.38 60.34s-19.81 10.96-23.7.21c-3.88-10.75 1.27-7.84 1.27-7.84s-14.19.52-13.1 16.57c1.1 16.04 11 21.1 11 21.1l2.79-3.99s-9.92-4.25-9.05-17.12c.87-12.87 4.6-14.13 4.6-14.13s-1.75 8.99.38 13.91c2.14 4.91 9.98 8.57 9.98 8.57m-15.5 103.34s-11.78 34.26-25.93 22.2c-14.14-12.07-13.41-28.14-4.31-21.74 5.63-7.33-3.18-11.35-6.89-8.96-3.71 2.38-19.02 14.63-9.51 37.87s29.62 31.16 42.29 28.62c12.67-2.55 22.51-15.81 22.51-15.81l-4.91-6.09s-11.04 16-25.75 11.04c-14.71-4.96-33.46-14.38-33.46-28.34 0-13.97 5.4-23.68 8.05-23.68 2.65 0 7.39-1.03 7.39 3.03-4.29-1.316-9.86 2.32-9.86 5.86 0 3.54-1.3 21.77 8.67 27.975 9.97 6.21 18.78 6.252 29.47 3.08 10.7-3.174 11.21-7.22 11.21-7.22l-4.85-11.45s-3.73 9.76-12.76 11.81c-9.02 2.05-24.76-.114-28.25-6.42-3.48-6.3-2.18-7.3-2.18-7.3m37.476-29.55s44.55 30.27 65.96 16.645c21.41-13.63 15.95-26.29 9.614-30.82-6.338-4.524-10.61.54-10.61.54s7.57-1.672 5.58 4.358c-2 6.03-13.138 12.5-33.068 5.13-19.93-7.36-41.69-24.31-41.69-24.31l2.23 16.32s27.567 17.05 39.466 19.91c12.39 2.97 33.49 1.4 36.58-10.09 3.09-11.48-3.14-11.48-3.14-11.48"/><path d="M161.41 299.595s11.136 21.612 21.212 37.74c10.076 16.126 24.47 30.016 24.47 30.016m-53.802-69.17s6.9 21.69 16.4 36.55c9.497 14.87 25.046 29.31 25.046 29.31m-53.31-70.75s6.704 21.49 13.586 35.4c6.882 13.91 23.744 31.65 23.744 31.65m-49.568-74.88s5.61 27.23 12.386 41.14c6.777 13.91 20.467 28.18 20.467 28.18"/><path d="M167.788 310.985s8.72 1.166 18.764.01c10.044-1.156 16.852-3.142 16.852-3.142m-31.95 10.307s24.89-1.47 32.97-4.18c8.08-2.712 14.414-5.664 14.414-5.664m-40.66 20.024s28.378-4.2 38.747-9.192c10.37-4.99 26.592-15.507 26.592-15.507m-60.38 34.2s27.16-2.89 33.64-6.27c6.484-3.38 16.56-8.23 16.56-8.23m-43.067 24.5s22.557-3.66 28.347-6.62c5.79-2.95 17.083-7.71 17.083-7.71m-40.218 21.27s25.195-2.75 31.425-5.86c6.23-3.1 11.577-4.72 11.577-4.72m-29.87 9.52l20.856 23.69m-7.564-26.03l22.02 26.51m-10.276-31.32l9.604 12.51M115.82 239.42s13.91 11.012 24.364 16.685c10.453 5.673 25.162 10.538 25.162 10.538m-47.104-41.323s10.39 10.496 19.416 18.144c9.025 7.65 25.772 15.413 25.772 15.413m-36.92-50.367s7.986 17.01 15.54 24.417c7.554 7.406 21.485 17.04 21.485 17.04"/><path d="M131.933 218.596s3.698-7.774 4.843-13.752c1.145-5.98.567-12.26.567-12.26l7.87-9.216s.22 17.346-1.41 25.005c-1.627 7.66-6.46 19.31-6.46 19.31l7.827 8.532s6.388-15.14 7.9-29.985c1.514-14.845.41-32.202.41-32.202s9.562-11.284 9.562-16.505v-7.312s3.025 26.98.62 42.19c-2.407 15.2-10.276 48.79-10.276 48.79"/><path d="M166.706 228.887s12.376-15.287 8.688-43.065c-3.687-27.78-4.486-32.633-10.055-41.51-5.57-8.878-10.88-15.14-10.88-15.14"/><path d="M168.035 148.74s13.07-12.03 19.857-30.908c6.786-18.88 9.34-44.62 9.34-44.62l8.7 9.267s.23 26.95-8.427 40.72c-8.658 13.76-25.174 36.01-25.174 36.01l1.42 9.84s19.58-15.31 26.97-29.59c7.4-14.28 15.87-39.52 15.87-39.52s5.82 14.33 5.82 18.78-7.19 25.51-19.63 39.01c-12.44 13.5-27.32 25.44-27.32 25.44l.58 17.44s24.42-21.73 30.64-30.52c6.22-8.8 16.76-28.46 16.76-28.46"/><path d="M155.017 84.496s9.97 7.018 20.204 7.018 19.73-1.166 19.73-1.166l-3.06 13.984s-16.93.146-29.11-3.027c-12.17-3.173-19.01-8.772-19.01-8.772m-5.02 7.29s7.84 8.49 23.01 10.644c15.17 2.154 28.49 1.008 28.49 1.008m-48.55.925s9.64 8.457 19.51 10.076c9.88 1.618 24.43 1.018 24.43 1.018m-31.61 5.348s7.35 4.876 13.65 6.178c6.31 1.303 11.08.337 11.08.337M162.51 79.22l1.524 8.617"/><path d="M168.728 73.853s2.017 3.834 3.078 8.825c1.062 4.99.914 8.12.914 8.12m1.786-21.694s3.908 4.864 5.022 10.748c1.114 5.883 1.26 11.326 1.26 11.326m-.578-26.77s6.105 6.744 7.397 13.458c1.293 6.714.957 12.293.957 12.293m30.738 297.03s-13.553-12.62-27.284-16.04c-13.732-3.42-34.903 2.25-45.346-1.95-10.443-4.19-11.66-11.19-16.168-13.3-4.508-2.11-9.35-3.77-9.35-3.77m80.596 80.6s-10.553 1.8-23.348 1.8c-12.795 0-22.77-4.82-32.735-7.37-9.963-2.55-29.602-21.84-57.643-20.81-28.04 1.03-46.386 8.18-60.256 5.41C13.898 409.01.57 399.28.57 399.28s18.865 8.01 28.793 8.01c9.93 0 48.57-8.773 63.123-8.773 14.552 0 35.66 13.155 56.88 17.663 21.222 4.508 50.478-2.947 50.478-2.947"/><path d="M213.286 403.032s-38.802 6.484-53.54 4.022c-14.737-2.46-42.64-14.725-58.476-16.24-15.836-1.514-59.655 12.172-70.647 12.172-10.993 0-30.007-4.38-30.007-4.38s20.702 2.993 28.712.52c8.01-2.474 52.073-16.645 72.543-16.645 20.48 0 44.62 15.89 66.42 14.79 21.8-1.1 51.44-9.31 50.48-9.31-.96 0-14.71-11.55-14.71-11.55s-10.06 6.35-27.18 8.95c-17.12 2.6-53.8-13.63-72.99-13.63-19.18 0-64.86 22.08-74.55 23.81-9.69 1.73-27.05 2.18-27.05 2.18m265.86 76.51s37.17 11.86 55.57 10.91c18.4-.94 58.86-7.38 58.86-7.38m-4.9 16.12s-36.66 3.32-51.45.72c-14.78-2.6-59.98-13.74-59.98-13.74m-4.21 8.08s41.94 12.21 58.44 13.94 56.82 4.13 56.82 4.13M256.16 494.5s39.332 18.795 63.756 23.453c24.427 4.66 66.37 7.236 66.37 7.236m-145.9-22.76s70.466 35.37 100.6 37.33c30.133 1.96 67.32-.86 67.32-.86"/><path d="M203.126 498.257s72.44 48.074 118.223 57.644c45.78 9.58 93.84 11.46 164.59-6.23s139.63-69 139.63-69m-337.31-10.73s28.22 2.12 46.97 2.12 43.64-8.57 43.64-8.57m5.66-2.48s13.12-3.27 18.61-5.22c5.49-1.95 14.02-6.28 14.02-6.28m-26.29 25.69l16.21-2.79m10.53-2.5s14.33-2.46 20.76-5.38c6.43-2.92 12.09-5.62 12.09-5.62"/><path d="M382.782 493.475s8.345-1.606 12.31-1.606c3.964 0 9.56-1.87 9.56-1.87m42.35-6.13s17.165-2.42 24.227-6.21c7.06-3.79 19.82-11.54 19.82-11.54m-106.76 40.36l17.79-.89m51.63-5.68s27.29-4.96 42.84-13.06 32.48-21.15 32.48-21.15m-81.66 55.13s40.2-6.38 72.61-21.17c32.41-14.8 67.01-42.85 67.01-42.85m-171.54 82.53l28.94-1.86s62.81-7.26 102.19-29.26c39.38-22 59.33-38.23 59.33-38.23M821.94 96.48l24.066 91.653-10.992-88.88m11.527 20.155l.98 67.875 12.6-85.26m8.85.82l-19.46 83.527 28.92-84.13m-38.93 88.94l-52.6 65.33 38.68-36m4.88 9.6l-41.63 25.36 43.12-14.52m6.58 4.78l-50.05 10.77m48.92-99.97s-19.87-1.86-31.87 18.11 6.93 49.42 6.93 49.42"/><path d="M830.982 132.574s-35.244 6.678-42.927 43.465c-7.684 36.78 12.44 61.48 12.44 61.48"/><path d="M825.787 110.967s-41.103 9.166-53.26 51.15c-12.156 41.985 0 79.37 0 79.37"/><path d="M839.707 78.023s-57.543 11.055-79.81 57.952c-22.268 46.896-15.213 87.433-15.213 87.433"/><path d="M789.975 100.26s5.7-58.96 93.386-69.008c87.69-10.047 171.75 74.77 217.26 74.77 45.52 0 57.67-11.022 57.67-11.022s-11.78 15.305-43.87 19.684c-32.09 4.38-95.81-18.645-125.54-33.858-29.73-15.213-57.67-12.787-57.67-12.787"/><path d="M1158.543 94.023s-51.023 13.952-103.78-14.488c-52.755-28.44-123.906-100.63-213.197-71.592-89.29 29.04-80.724 124.065-80.724 124.065"/><path d="M878.29 102.56s43.78-1.165 56.6 9.952c12.817 11.117 21.1 27.748 21.1 27.748s5.89-22.584-18.392-35.875c-24.284-13.29-69.48-14.834-69.48-14.834l4.41-12.31s42.615-6.55 68 14.37c25.384 20.92 17.92 46.27 17.92 46.27s15.462-45.22-26.71-66.83-85.795-5.79-85.795-5.79m13.543 124.38s3.246-5.89 8.537-5.89c5.29 0 28.598 10.59 38.11 5.3s24.883-23.59 24.883-23.59l2.52 9.36s-12.488 17.38-24.756 21.22c-12.27 3.84-28.17-2.1-35.05-4.54-6.89-2.44-9.74 3-9.74 3l3.9 7.56s2.59-5.87 9.34-3.78c6.74 2.1 23.25 7.81 33.2 5.25 9.95-2.55 25.83-21.56 25.83-21.56l1.57 10.62s-15.51 15.12-25.33 18.4c-9.83 3.27-24.18-4.93-32.63-5.89-8.45-.97-6.17 1.79-6.17 1.79l7.02 7.61s22.04 9.17 32.31 5.27c10.28-3.91 27.95-19.85 27.95-19.85"/><path d="M925.162 171.627s-12.646-16.39-3.39-30.89c9.253-14.5 24.056-16.373 24.056-16.373m-23.03-16.782s-28.432 19.424-26.263 45.845c2.168 26.42 14.052 32.435 14.052 32.435m-22.79 2.572s-16.378-22.884-13.99-47.647c2.39-24.763 11.872-37.77 11.872-37.77m86.3 39.19s7.75-9.478 21.61-12.44c13.85-2.96 104.28 6.597 147.05-4.285 42.77-10.88 53.89-38.488 53.89-38.488s-15.19 36.156-53.04 47.748c-37.86 11.592-102.74 9.86-126.52 9.86s-34.49 13.636-34.49 13.636"/><path d="M985.275 178.49s6.772-9.638 28.725-15.496c21.953-5.857 42.58 4.505 99.18-6.392 64.127-12.347 84.22-68.63 84.22-68.63s-24.88 72.188-83.054 84.188c-58.174 12-77.735 5.354-98.143 9.48-20.408 4.128-29.07 18.9-29.07 18.9m-178.11 97.32s3.372-5.29 9.48-5.29c6.11 0 20 7.434 20 7.434s-2.14-10.143 13.513-12.945c15.652-2.81 24 8.88 24 8.88s4.79-13.61 20.504-19.44c15.714-5.83 25.984 1.73 25.984 1.73m-117.48 13.23s5.48-8.91 13.984-9.1c8.504-.19 14.392 3.15 14.392 3.15s3.496-12.79 18.96-13.01c15.466-.22 19.087 8.09 19.087 8.09s1.987-9.7 15.088-18.52c13.102-8.82 25.668-7.06 25.668-7.06"/><path d="M804.52 281.137s3.43-5.92 10.455-6.614c7.025-.693 16.6 2.993 16.6 2.993s7.148-9.764 16.124-13.008c8.97-3.244 20.82 1.512 20.82 1.512s1.66-14.27 23.65-24.883c21.98-10.614 34.49-7.117 34.49-7.117m79.43-47.782s7.59 16.88.88 30.96c-6.71 14.08-11.91 20.318-11.91 20.318m34.96-55.748s8.69 17.92 2.39 36.755c-6.3 18.834-20.98 31.15-20.98 31.15m44.06-66.52s4.59 7.654 4.59 18.394c0 10.74-1.93 24.473-1.93 24.473m24.25-44.16s4.31 10.68 4.31 17.734c0 7.054-3.15 18.865-3.15 18.865m23.12-42.05s4.38 24.75 4.38 43.18-4.29 38.89-4.29 38.89"/><path d="M1199.92 237.516s-36.723-4.315-64.598 2.488c-27.875 6.803-43.465 44-43.465 44s-45.765 13.574-60.882 46.3c-15.118 32.723-14.928 46.456-14.928 46.456"/><path d="M1045.62 359.06s9.7-33.324 25.544-49.01c15.844-15.685 41.543-19.937 41.543-19.937s10.867-27.935 37.7-32.314c26.835-4.38 43.593 1.95 43.593 1.95"/><path d="M1184.14 274.49c-2.52 0-12.82-4.06-26.96-.44-14.14 3.622-26.928 22.962-26.928 22.962m-57.23 51.338s1.386-13.637 8.914-21.323c7.527-7.685 15.78-9.007 15.78-9.007M819.07 306.523s126.268-4.63 154.93-7.402c28.662-2.77 105.826-10.1 105.826-10.1M820.33 318.97s115.465-7.464 129.512-7.464c14.047 0 102.96-7.495 102.96-7.495m-231.308 22.55l69.04-.31m15.906-.56s55.37-1.35 69.165-1.35c13.795 0 60.915-4.35 60.915-4.35m-213.48 18.26l50.423.63M925.78 335l104.724-3.967M824.52 349.26l56.535 2.707m36.472-3.87l105.985-2.995m-200.57 15.055l58.175 1.86m42.9-2.204l20.88.157m-55.404 12.13s17.545 9.545 27.057 6.425c9.514-3.12 34.365-28.978 53.01-24.85 18.644 4.126 21.197 19.653 21.197 32.41 0 12.755-20.756 25.448-20.756 25.448s16.25-14.11 13.2-23.56c-3.05-9.446-4.16-21.54-18.3-21.54s-32.59 16.41-47.87 17.165c-16 1.45-27.53-11.496-27.53-11.496z"/><path d="M887.008 373.986s-1.26 12.16 12.03 14.836c13.292 2.678 28.442 2 36.474-2.71 8.03-4.708 31.967-8.848 34.203 6.49 2.236 15.337-2.172 19.685-2.172 19.685s-.63-6.49-11.592-9.607c-10.96-3.118-22.61 9.607-34.1 9.607-11.49 0-25.89.156-31.68-15.844-5.79-16-3.15-22.457-3.15-22.457z"/><path d="M885.527 375.908s-8.914 16.598-2.93 33.512c5.985 16.914 23.967 24.096 36.094 24.096 12.13 0 26.84-16.787 34.9-20.442 8.07-3.654 13.64.346 13.64.346M812.52 515.373s-27.15-10.71-43.15-2.016-35.655 21.702-47.497 21.702c-11.842 0-24.914-7.12-24.914-7.12s14.45 16.44 34.17 11.78c19.71-4.66 51.11-20.26 61.57-20.26s19.97 3.56 19.97 3.56"/><path d="M813.936 537.516s-14.772-11.153-35.086-2.584c-20.315 8.568-32.977 14.455-46.457 11.054-13.48-3.4-16.504-5.007-16.504-5.007s46.71 14.45 70.64 9.73c23.93-4.73 27.97-6.93 27.97-6.93m34.7-67.84s7.84 7.02 1.73 16.12c-6.11 9.1-16.82 17.54-40.57 17.54s-47.97-25.74-50.36-32.13c-2.4-6.39-1.04-9.61-1.04-9.61"/><path d="M758.504 469.86l36.252-37.825s-10.678 21.953-1.922 37.543 13.293 24.504 35.213 24.504 21.92-17.732 21.92-17.732"/><path d="M879.354 397.326s-43.886-.013-59.465 15.56c-15.58 15.57-9.16 48.16-7.16 52.66 3.84 8.63 16.08 16.824 26.15 17.757 10.07.934 9.12-7.714 9.12-7.714s-2.36 4.69-8.18 4.69-10.66-5.39-11.98-9.48c-4.76-14.71.28-29.76 8.79-34.81 8.5-5.04 34.77-19.47 59.37-5.99 24.59 13.48 32.12 25.54 34.96 35.52 2.83 9.98 3.02 34.11 3.02 34.11"/><path d="M863.03 476.402s-3.79-10.482-12.294-10.482c-8.505 0-8.46 3.956-8.46 7.22 0 3.262 2.33 5.064 2.33 5.064s-9.418 3.308-9.418-9.086 11.46-23.26 26.426-23.26c14.965 0 29.688 6.8 34.292 17.02 4.604 10.217 8.087 32.545 8.087 32.545m66.662-71.168s1.56 8.615-4.208 16.416c-5.77 7.81-24.6 30.99-19.954 47.12 4.648 16.13 12.946 33.73 42.557 34.45 29.61.73 37.248-36.78 37.248-36.78s-7.12 26.35-31.38 25.46c-24.263-.89-32.063-22.93-32.063-30.42 0-7.49 11.647-24.42 12.438-37.84.79-13.41-4.638-18.38-4.638-18.38z"/><path d="M971.59 424.644s17.756 10.504 15.625 24.953c-2.13 14.45-22.744 28.074.868 44.698 23.613 16.624 37.16-8.285 37.16-8.285s-5.384 9.922-16.943 8.285c-11.56-1.637-10.735-13.592-9.438-18.987 1.296-5.395 9.757-24.657 1.626-38.017-8.13-13.36-28.897-12.64-28.897-12.64zM928 502.81l22.01-5.483m-20.58 15.713l25.59-5.418m-25.47 15.965l33.15-9.273m-36.16 18.954l57.004-11.34m7.106-113.45s37.74-26.184 50.575-24.557c12.833 1.63 37.73 2.88 41.962 29.43 4.23 26.55 3.845 31.14 3.845 31.14"/><path d="M1110.48 438.42s14.822-26.085 1.406-44.665c-13.416-18.58-41.697-33.93-66.233-21.053-24.536 12.878-64.992 38.71-64.992 38.71l-7.65 2.34s65.61-50.73 91.06-53.697c25.45-2.966 49.68-12.964 74.22 13.11 24.55 26.072-2.84 80.407-2.84 80.407"/><path d="M1058.52 470.8s1.746-14.965 9.25-22.865c7.505-7.9 18.428-14.35 18.428-14.35m-39.018 37.918s-.945-18.547 10.186-31.908c11.13-13.36 26.897-19.415 26.897-19.415"/><path d="M1036.654 472.03s-1.176-25.084 10.34-39.126c11.514-14.042 33.973-28.722 33.973-28.722"/><path d="M1028.282 474.272s-5.66-22.23 9.02-45.753c14.68-23.53 34.985-35.48 34.985-35.48"/><path d="M1017.69 473.228s-.528-25.37 9.493-49.873c10.02-24.502 25.777-37.49 25.777-37.49m-44.435 107.438s-1.714-17.085-.857-32.128c.857-15.042 7.033-37.995 7.033-37.995m5.84-14.097s2.52-6.725 5.58-12.428c3.07-5.702 9.14-11.416 9.14-11.416m-26.85 22.65l6.83-13.51m-13.11 44.4l2.31-14.38m124.5 27.17s17.39 9.5 31.33-1.26c13.94-10.76 11.75-23.14 11.75-23.14"/><path d="M1121.76 454.32s21.492 15.46 40.853 4.737c19.36-10.724 19.414-29.403 19.414-29.403"/><path d="M1112.443 455.684s13.273 18.306 43.26 13.152c29.984-5.153 34.49-37.764 34.49-37.764"/><path d="M1099.257 454.332s21.01 33.018 58.28 25.426c37.27-7.592 41.95-50.61 41.95-50.61"/><path d="M1089.677 453.63s37.215 49.608 75.716 35.226c38.5-14.383 42.203-64.62 42.203-64.62m-28.37-32.412s-25.008-44.226-62.29-47.313c-37.28-3.08-70.09 18.48-81.165 23.26-11.07 4.78-62.77 41.88-62.77 41.88m240.01 4.61s16.46-2.7 24.77 6.89c8.31 9.59 9.29 24.39 9.29 24.39"/><path d="M1254.202 445.74s1.373-21.966-16.427-31.986-28.733-6.406-28.733-6.406"/><path d="M1203.768 402.228s21.053-6.988 38.018 4.966c16.964 11.955 17.81 40.193 17.81 40.193"/><path d="M1266.036 450.98s1-30.997-18.515-47.138c-19.51-16.14-47.62-6.075-47.62-6.075"/><path d="M1271.727 455.99s1.164-40.28-21.778-56.828c-22.95-16.547-55.79-5.648-55.79-5.648m-9.76-1.68s33.18-16.24 43.31-30.38c10.13-14.143 43.53-68.78 56.98-73 13.45-4.22 25.47 4.572 24.4 13.79-1.07 9.22-10.45 9.46-10.45 9.46s13.93-.197 14.81-8.57c.88-8.373-8.72-25.756-38.02-24.283-29.31 1.48-66.86 61.69-77.09 70.06-10.23 8.37-32.65 23.34-32.65 23.34"/><path d="M1308.066 277.543s3.274 2.32 4.944 8.747 3.077 14.317 1.54 17.976c-1.54 3.66-4.188 4.856-4.188 4.856m-35.15-37.642s-28.25-1.464-40.315 6.24c-12.065 7.702-27.142 20.446-27.142 20.446m-69.23 8.764s59.357-25.944 62.444-68.763c3.08-42.82-42.74-89.434-42.74-89.434l3.66-3.548s53.47 52.47 44.2 98.167c-9.28 45.698-67.11 70.97-67.11 70.97l-.46-7.39z"/><path d="M1139.18 320.718s55.982-17.807 73.02-76.495c13.416-46.214-44.235-105.487-44.235-105.487l9.734-12.982s50.23 54.813 42.71 114.088c-7.53 59.275-82.99 91.582-82.99 91.582l1.76-10.706z"/><path d="M1186.46 113.45s46.625 41.258 40.436 117.92c-6.19 76.66-98.024 114.227-98.024 114.227l11.85 5.88s83.397-37.643 94.24-119.428c10.84-81.79-43.755-127.66-43.755-127.66l-4.746 9.05z"/></g><path d="M1153.816 417.726v6.66l5.785-5.27s14.03 11.714 29.89 11.714 24.49-14.227 24.49-14.227-12.24-24.147-30.12-24.147c-17.88 0-24.25 21.032-24.25 21.032l-8.14-4.23 2.36 8.468zm-67.68 32.512l-2.59 3.676 9.047-2.807s13.33 3.908 20.777 3.908c7.45 0 16.788-4.777 16.788-4.777S1128.605 439 1113.37 439c-15.234 0-20.777 9.417-20.777 9.417l-10.593-4.79 4.137 6.61zm137.378 11.452l-.947 5.32 6.91-4.497s10.087 8.575 23.81 7.434c13.724-1.142 20.023-11.087 20.023-11.087s-7.21-12.297-23.155-12.078c-15.944.22-21.492 11.016-21.492 11.016l-11.493-6.44 6.344 10.333zm-207.824 19.823v5.057l4.81-3.323s17.084 5.31 31.585 3.323c17.45-1.335 23.51-8.008 23.51-8.008s-9.6-7.562-24.834-7.562c-15.23 0-30.26 7.562-30.26 7.562l-8.5-6.054 3.69 9.005zm-52.45-60.403l2.203 6.292 4.045-4.69s19.074 2.846 35.264.858c19.483-1.335 26.248-8.008 26.248-8.008S1020.283 408 1003.274 408c-17.008 0-33.786 7.562-33.786 7.562l-10.618-2.36 4.37 7.908z" stroke="#566B79"/><g stroke="#566B79"><path d="M244.21 360.46c-2.795-7.954-4.367-10.442-9-29.433-1.808-7.413-3.775-13.058-2.36-13.6 16.406-6.284 39.94-14.928 56.927-17.404 2.31-.337 15.353 40.55 13.308 43.53-2.423 3.53-58.028 19.682-58.876 16.907z"/><path d="M287.168 306.274c2.24-.355 9.653 22.34 11.752 33.633.546 1.818-44.25 13.53-51.78 15.83-1.91.585-9.363-30.144-10.407-34.044 0 0 42.313-14.13 50.435-15.42zm-24.993 3.74c-.132-.387.463-1.016.463-1.016s.614-.083.77.372c.155.455.08 1.052-.227 1.213-.3.16-.87-.18-1-.568zm-17.783 50.908c-.415 18.18 1.328 35.233 2.062 37.636.533 1.74 74.354-20.945 74.356-22.733.002-2.177-11.104-24.02-17.128-33.03"/><path d="M275.304 378.047s14.035-4.722 14.317-3.8c.65 2.104 2.78 3.816 3.83 7.223.36 1.166-16.71 7.453-17.37 5.31-.65-2.142-.77-8.733-.77-8.733zm-7.614-3.77c-.154-.507 20.698-6.684 21.21-6.485.247.095.894 2.455.794 2.593-.56.768-20.267 6.882-21.21 6.484-.046-.02-.402-1.32-.793-2.6zm22.606-17.202l.91 2.98 2.91-.89-.91-2.98-2.91.89zm.43 9.815l.91 2.978 2.91-.89-.91-2.98-2.91.89zm-10.876-1.387l.91 2.98 2.91-.89-.91-2.98-2.91.89zm15.013-9.823l.91 2.978 2.91-.89-.91-2.98-2.91.89zm.25 9.867l.91 2.98 2.91-.89-.91-2.98-2.91.89zm-9.383-7.077l.91 2.98 2.91-.89-.912-2.978-2.91.89zm2.917 4.343l.91 2.98 2.91-.89-.91-2.98-2.91.89zm10.783-8.53l.91 2.98 2.91-.89-.91-2.98-2.91.89zm-.084 9.97l.91 2.98 2.91-.89-.91-2.98-2.91.89zm4.706-1.438l.91 2.98 2.91-.89-.91-2.98-2.91.89zM262.8 375.427l.91 2.98 2.91-.89-.91-2.98-2.91.89zm4.66-11.37l.912 2.98 2.91-.89-.91-2.98-2.91.89zm13.702-4.19l.91 2.98 2.91-.89-.91-2.98-2.91.89zm2.918 4.343l.91 2.98 2.91-.89-.91-2.98-2.91.89zm-8.84 2.702l.912 2.98 2.91-.89-.91-2.98-2.91.89zm-16.525 9.764l.91 2.98 2.91-.89-.91-2.98-2.91.89zm4.18-11.224l.91 2.98 2.91-.89-.91-2.98-2.91.89zm13.7-4.188l.91 2.98 2.91-.89-.91-2.98-2.91.89zm-5.767 6.996l.91 2.98 2.91-.89-.91-2.978-2.91.89zm-16.188 9.662l.91 2.98 2.91-.89-.912-2.98-2.91.89zm-4.187 1.28l.91 2.98 2.91-.89-.91-2.98-2.91.89zm7.875-12.354l.91 2.98 2.91-.89-.91-2.98-2.91.89zm13.7-4.188l.91 2.98 2.91-.89-.91-2.98-2.91.89zm-5.768 6.997l.912 2.98 2.91-.89-.91-2.98-2.91.89zm-4.185 1.28l.91 2.98 2.91-.89-.91-2.98-2.91.89zm10.16-19.56l6.105-1.592m-28.155 17.53c-.962.294-1.123-3.673-1.123-3.673s18.986-6.35 19.568-5.983c.583.36 1.726 3.11 1.123 3.67-1.063.99-18.606 5.69-19.568 5.98zm20.065-9.87c-.117 1.893 1.032 3.38 1.032 3.38s14.24-4.14 14.915-4.56c.628-.39-.37-3.324-1.033-3.38-.692-.057-14.915 4.56-14.915 4.56zm-21.05 11.75c.226 1.788 1.034 3.38 1.034 3.38s6.6-1.803 6.88-2.103c.26-.28-.69-3.227-1.034-3.38-.36-.16-6.88 2.103-6.88 2.103zm38.04-16.845c-.072 1.242.986 3.227.986 3.227s11.222-2.95 11.752-3.593c1.05-1.28-.765-3.917-1.16-3.796-1.937.592-11.558 3.8-11.58 4.16zm-37.76 22.032c3.642-.816 7.015-2.504 10.674-3.263.092-.02 1.03 3.36 1.03 3.36-3.588 1.09-6.95 2.46-10.676 3.26-.178.04-1.028-3.37-1.028-3.37zm43.69-13.196c.043.922.53 3.084.94 3.072 2.444-.073 11.603-3.073 11.47-3.506-.358-1.17-.713-2.334-.94-3.072-.25-.822-11.47 3.506-11.47 3.506zm-35.898-25.48c-.13-.423-.134-3.377 1.268-4.44 1.403-1.065 5.233-.558 5.233-.558m19.495-3.505s.29-3.465 1.874-4.584c1.585-1.12 4.416-.73 4.416-.73"/></g><path d="M891.416 331.595c-.016-1.75 4.734-17.5 4.734-17.5l11.434 17.5h17.364l-9.062 16.606s9.062 19.61 9.062 21.45c0 1.83-20.866-7.66-20.866-7.66l-22.098 13.46v-22.51l-9.87-15.53 19.302-5.79zm-51.62-248.868l-2.01-19.924 15.616 12.57 21.05-7.358-7.946 21.9 11.384 13.135-21.05-2.088-9.852 18.73-4.606-19.8-22.054-5.468 19.47-11.697zm33.48 154.81s-23.277 9.23-30.472 8.737c-7.195-.494-10.827-2.306-12.697-6.984-3.988-9.983 4.148-12.15 6.346-10.262-3.238-1.59-6.018.482-6.018.482s-5.58-3.37-5.117-11.704c.663-11.907 14.84-10.488 15.798-7.142-3.29-2.996-7.32-2.21-7.32-2.21s-.53-19.34 16.178-19.496c16.708-.157 20.856 20.85 19.203 25.06.504-1.32.23-7.057.23-7.057s9.832-1.89 13.22 13.16c3.387 15.05-9.35 17.42-9.35 17.42zm271.73-10.107s9.126 6.183 22.17 1.72c13.04-4.463 5.187-20.454 7.298-23.446 2.11-2.992 3.182-2.488 3.182-2.488s-10.045-6.26-18.645-3.028c-8.26 3.106-5.66 27.24-9.65 27.24h-4.35z" stroke="#566B79"/><path d="M1166.68 214.27s-2.436.718-4.625.798c-1.66.06-4.25 1.314-5.175 3.484-2.145 5.03-1.942 7.08 4.226 4.92 6.17-2.162 5.575-9.2 5.575-9.2zm-6.843 16.568l.723 6.158m2.93-6.173l.74 5.37" stroke="#566B79"/><path d="M1173.005 203.51L1169 203l.936 2.74 3.07-2.23z" fill="#566B79"/><path d="M1133.52 58.823s6.688 13.07 12.54 19.986c5.85 6.91 14.293 17.18 22.055 16.03 7.76-1.15 18.717-6.5 26.297-8.17 7.58-1.67 31.665-6.36 33.822-6.36 2.157 0-3.576-7.15-5.842-8.42-2.265-1.27-16.054-8.2-25.792-9.62-9.737-1.42-63.08-3.46-63.08-3.46z" stroke="#566B79"/><path d="M1172.93 72.77s-2.203 6.122-1.394 7.257c.81 1.135 5.615-3.514 6.962-3.174 1.346.34 2.58 6.404 3.86 6.884 1.28.48 5.96-9.175 5.96-9.175" stroke="#566B79"/><path d="M1207.028 71.13l6.123 4.57-5.45-.663-.67-3.906z" fill="#566B79"/><path d="M1222.83 72.76l-3.59 8.985m-57.387 13.308s-9.35-.816-20.214-9.557c-10.87-8.742-18.44-17.768-18.02-18.465.41-.69 13.92-.03 13.92-.03" stroke="#566B79"/><g stroke="#566B79"><path d="M1102.898 294.33l4.068 4.365s9.247 1.348 12.683 1.348c3.43 0 10.63.235 10.63.235l5.78-4.64.46 5.95s2.75 20.22 1.58 23.634c-1.78 5.174 1.16 11.03-20.18 9.968-18.34-.188-21.29-5.734-20.58-17.155.7-11.422 5.07-18.83 5.07-18.83l.48-4.874z"/><path d="M1106.663 343.193c0-.544.63-9.9.63-9.9s7.98 3 10.047 3 9.234-.006 9.234-.006l.22 9.57m-24.74-32.504c0 5.036-1.18 8.13 7.47 8.686 8.65.55 9.73-2.79 9.73-9.94 0-7.15-3.363-9.11-9.73-9.11-6.132 0-7.47 5.31-7.47 10.35zm18.05-.683c-.35 7.105-.208 8.85 6.95 9.763 7.156.912 8.633-2.6 8.633-8.573 0-6.254-1.25-8.86-7.4-8.86s-7.832.565-8.183 7.67z"/><path d="M1108 315.648s1.038-3.648 3.525-3.648c2.488 0 2.937 3.893 2.937 3.893m11.538-.083s-.14-3.81 2.346-3.81c2.487 0 3.18 4.137 3.18 4.137m-8.6 5.855s-.458 1.406-3.73 3.64c-4.093-2.234-2.928-3.64-2.928-3.64"/></g><g stroke="#566B79"><path d="M216.54 250.186c.974 4.3 35.928-.97 36.135-5.764 1.03-23.898-6.29-60.148-8.91-62.685-1.706-1.652-33.483-.135-34.495 5.072-1.012 5.2 2.8 43.66 7.27 63.37z"/><path d="M212.68 187.423c-1.447 6.11 4.61 53.824 6.53 53.923 9.91.51 21.364-1.378 29.438-4.918 2.977-1.306-4.21-48.924-8.842-51.773-2.828-1.74-27.125 2.768-27.125 2.768zm24.63 54.833c-5.967 4.71 1.23 7.764 3.34 1.56l-3.34-1.56zm-.58 25.086l-6.016-15.23 17.08-3.956-1.568 8.068"/><path d="M218.394 208.92s1.968-3.903 3.712-3.68c1.744.224 3.552 4.61 3.552 4.61m5.905-2.173s3.58-4.377 5.563-4.145c1.983.232 2.34 5.07 2.34 5.07m-13.17 16.318l8.03-.204 5.042-1.684"/></g><g stroke="#566B79"><path d="M949.836 223.878c3.168 4.497 34.987-5.84 37.378-9.492 2.39-3.653-7.285-70.75-14.107-73.828-6.822-3.076-44.122 8.234-43.73 12.7.39 4.467 17.292 66.122 20.46 70.62z"/><path d="M935.79 154.785c-2.334 3.57 7.623 36.603 10.805 39.32 3.183 2.717 33.463-6.15 33.168-9.52-.294-3.37-8.455-36.368-11.31-38.772-2.857-2.404-30.327 5.4-32.662 8.972zm15.85 45.035l24.24-7.4m-21.72 13.263l24.24-7.4m-25.107 17.52l24.24-7.4m-15.903 19.87l.62-3.904 17.538-4.61 2.64 12.48m-39.292-59.96c1.36-.82 2.943-2.69 8.655-1.64"/><path d="M964.82 167.072s.62-1.652 3.18-2.402c2.56-.75 4.514.46 4.514.46"/></g><g transform="translate(473 162)" stroke="#566B79"><path d="M.98 17.836c.664-4.138-.992-14.322 9.333-14.322 13.555 0 87.98-5.076 92.072-2.575 4.09 2.5 5.33 20.37 5.33 30.46s2.375 22.49-15.953 23.84c-18.328 1.35-77.732 1.45-81.45-.06-3.717-1.52-7.92.42-8.734-11.24C1.033 36.14-.364 26.2.98 17.83z"/><circle cx="12" cy="28" r="5"/><path d="M22.272 9.48c1.203-1.68 33.2-3.584 39.426-3.584 6.227 0 34.842.164 34.842.164s5.338.037 5.338 4.494-.725 36.536-.725 36.536.128 3.06-4.897 3.54c-5.024.477-66.458 3.314-68.22 2.702-1.762-.613-7.13-.426-7.13-7.145 0-6.72-1.38-31.67-1.38-31.67S21.07 11.16 22.27 9.48z"/><path d="M59.082 36.096l-24.653-2.96 1.7 6.708s9.89 5.276 21.67 5.276c11.77 0 23.37-5.28 23.37-5.28v-8.83l-22.1 5.085zM50.888 60.61l.71-3.822 25.987.157.754 8.205M47.52 35l.362 8.44m7.376-7.36v8.41m6.85-8.394v7.654m8.537-9.812v8.788m5.203-10.472l.363 9.008m-35.62-7.025l.37 6.804m-.82-23.3L47.78 23m-6.77.676l6.612-6.155m24.882.1l8.03 5.58m-6.677 1.59l5.67-6.77"/></g><g stroke="#566B79"><path d="M402.053 199.017c2.232-1.91 27.093-6.315 29.96-.753 2.866 5.562 3.62 50.01.365 53.08-3.255 3.068-20.082 3.337-24.823 2.255-4.74-1.09-10.482-3.95-10.482-10.32s2.747-42.35 4.98-44.27z"/><path d="M404.562 206.192c2.023-3.113 8.98-2.822 14.34-2.822 5.36 0 9.61-.47 10.916 2.045 1.306 2.517 1.918 28.116.418 29.288-1.5 1.172-21.3 2.112-23.1.76-1.798-1.35-3.284-3.44-3.284-6.665s-1.313-19.492.71-22.606zm3.083 36.02l19.433-.477m-18.598 5.875h16.828m-22.986 22.913l3.613-17.17 17.246 1.365.12 11.796"/><path d="M412.73 226.55l9.45-.343s-1.23 6.503-4.457 6.503c-3.225 0-4.994-6.16-4.994-6.16z"/><path d="M412.73 226.55l9.45-.343s-1.23 6.503-4.457 6.503c-3.225 0-4.994-6.16-4.994-6.16zm-3.304-9.4s1.092-2.646 2.667-2.646c1.575 0 3.697 2.646 3.697 2.646m10.247-.66s-.482-2.186-1.724-2.263c-1.24-.077-3.424 1.943-3.424 1.943"/></g><path d="M360.924 82.637c3.433-4.756 29.765.726 32.158 5.418 2.393 4.69-2.71 48.724-5.64 51.43-2.926 2.708-29.825 1.703-33.794-4.25-3.968-5.954 3.842-47.842 7.276-52.598z" stroke="#566B79"/><path d="M366.563 85.69c-4.127 0-8.063 15.843-6.016 20.253 2.047 4.41 20.123 5.764 23.432 5.764 3.3 0 9.63-19.242 6.83-21.7-2.8-2.456-20.13-4.316-24.25-4.316z" stroke="#566B79"/><path d="M367.95 99.016c.645-.634 4.753 0 4.753 0s-1.29 2.415-2.463 2.415c-1.172 0-2.938-1.78-2.29-2.41zM380 100l3.292 1.396s-.55 1.598-2.426.8C378.99 101.396 380 100 380 100z" fill="#566B79"/><path d="M363.753 116.578c1.03-.963 16.327-.515 17.708.695 1.39 1.21 1.98 6.547.6 7.48-1.37.933-16.99 1.486-17.98.388-.99-1.09-1.35-7.6-.32-8.56z" stroke="#566B79"/><path d="M370.8 119.565s4.92-.597 4.92-.008c0 .59 1.15 2.583.224 3.068-.926.485-4.68.366-5.166.366-.485 0 .022-3.42.022-3.42zm-9.227 11.093l20.553.904m-19.97 2.59l18.566 1.546m-18.342 16.125l.126-11.34 18.724.88.276 10.438" stroke="#566B79"/><g transform="translate(96 16)" stroke="#566B79"><path d="M29.04 74.907c2.165 1.082 21.06-10.58 29.407-17.275 8.346-6.697 20.38-15.454 20.38-18.74 0-3.284-56.82-50.257-74.14-35.93-17.32 14.326 22.188 70.863 24.353 71.945z"/><path d="M2.396 24.903s5.48-2.36 11.504-7.115c6.025-4.755 13.968-13.14 13.968-13.14m22.04 11.922s-2.764 8.534-14.76 16.806-23.674 11.766-23.674 11.766m8.086 16.006s16.446-6.674 25.456-14.61c9.01-7.936 19.493-20.12 19.493-20.12"/><ellipse fill="#566B79" cx="22.5" cy="27" rx="5.5" ry="6"/><circle fill="#566B79" cx="35.5" cy="42.5" r="4.5"/><circle fill="#566B79" cx="44.5" cy="56.5" r="4.5"/><path d="M37.44 72.84l6.666 5.92 6.075-4.305 9.35-6.618-5.22-6.57-2.85 1.897 3.8 5.8-2.96 2.366-4.18-5.48-2.92 1.98 4.01 5.818-3.18 2.38-4.89-5.53-3.69 2.35zm23.03-15.768l4.8 5.72 3.726-2.838-4.86-5.45 2.74-2.247L71.75 57.7l2.868-2.375-5.227-5.696 3.38-2.6 5.02 5.92 2.53-3.43-4.45-5.27 1.68-1.41 4.76 5.36-18.05 15.49-4.97-5.79 1.2-.84z"/></g><g stroke="#566B79"><path d="M443.987 373.188l1.403-8.758 4.84 5.71s7.475-.345 11.81.484c4.338.83 6.83 3.11 6.83 3.11l4.99-7.664 3.187 9.024s12.314.03 18.532-.666c6.21-.695 12.72 1.924 14.38.962 1.67-.962 8.48-8.97 4.24-23.734-4.24-14.764-7.05-13.275-7.05-16.318 0-3.042 2.74-3.018 3.93-2.008 1.19 1.01 6.23 7.337 7.58 14.607 1.35 7.27 4.69 34.68 2.34 45.223-2.35 10.542-6.76 21.732-17.94 21.732-11.18 0-56.3-5.166-56.3-5.166s-6.77-1.536-7.45-9.387c-.69-7.85-.12-14.26 1-18.55 1.12-4.3 3.64-8.61 3.64-8.61z"/><path d="M446.787 380.568l2.087-1.634 1.785 1.646-3.88-.012zm13.1.95l4.17.465-2.004-2.855-2.165 2.39zm-10.25 2.957l1.844 2.854-.69 14.91-2.68 1.48 2.97-.91 2.24 1.09-1.46-1.78.72-14.56 3.06-2.6-5.98-.5zm31.21-9.085c0 .472 3.186 10.427 3.186 10.427l5.583-10.802 3.266 11.135 4.324-10.675 3.847 9.84 4.034-10.046"/></g><path d="M417.632 471.583l21.11-.284 1.753-6.73s5.11 3.99 5.11 7.15 1.18 21.17 1.18 21.17.08 1.52 1.657 2.22c1.58.69 5.105 1.87 5.105 4.61s-5.002 3.14-5.534 4.33c-.532 1.18-1.04 21.28-1.04 21.87 0 .59 4.39 3.75 4.39 4.9 0 1.15.02 5.25-1.917 5.95-1.935.7-9.628-1.88-14.618-1.88s-16.39-.58-18.448 2.36c-2.056 2.94-4.44 4.51-6.95 3.37-2.51-1.15-2.612-6.18-2.612-6.18s-22.398-5.42-26.317-16.09c-3.91-10.67-4.48-21.34-.06-32.81 4.43-11.47 1.38-18.53-.59-21.13-1.98-2.61-1.13-3.12-.26-3.94.87-.81 3.7-.23 5.74 3.31s6.85 11.58 3.96 17.53c-2.89 5.94-8.91 10.29-7.54 18.96 1.37 8.67 3.75 17.27 13.39 21.44 9.64 4.18 11.65 5.28 11.65 5.28s-1.91-7.27-3-11.67-.99-9.64-.99-9.64-6.72-2.99-7.18-5.54c-.46-2.55 7.17-6.56 8.46-8.42 1.29-1.86 1.51-13.68 2.84-18.08 1.33-4.41 4.3-9.13 5.43-9.13s5.33 7.03 5.33 7.03z" stroke="#566B79"/><path d="M421.388 479.167l6.085-.09.272 2.226s-4.954.35-5.655.35c-.702 0-.702-2.486-.702-2.486zm13.632-.562l5.318.314.586 1.89-5.534.08-.37-2.29zm-6.26 6.792l2.777 1.857v4.93l-2.776 3.393h1.14l2.36-2.245 2.72 1.27.79-.61-2.44-1.808-.31-5.408 1.95-2.13-6.19.75z" fill="#566B79"/><path d="M112.3 421.82s.38 12.73 6.348 16.174c5.968 3.445 17.89 3.032 22.834 2.184 4.944-.848 20-3.547 26.334.65 6.334 4.2 9.786 13.13 9.786 13.13s25.263 1.805 30.715 3.527c5.452 1.723 24.415 2.63 24.415 2.63l2.156-5.492 3.87 5.767s6.07.32 9.7.32c3.627 0 10.36 1.72 10.36 1.72l4.24-5.6s5.385 9.44 3.513 18.887c-1.87 9.447-7.99 17.897-12.4 19.043-4.41 1.146-14.46-1.125-14.46-1.125l.03 8.707-4.53.57s-1.82-8.396-4.86-9.467c-3.04-1.072-38.22-3.785-40.24.257-2.03 4.042-1.46 9.854-1.46 9.854l-5.08 1.072-1.65-8.484s-14.67-7.386-15.68-16.833c-1.01-9.44 3.69-22.12 2.65-25.09-1.04-2.96-5.63-9.15-12.58-8.45-6.95.69-28.18 6.64-39.53.53-11.35-6.11-12.09-13.41-10.71-20.42 1.38-7 6.27-4.05 6.27-4.05z" stroke="#566B79"/><path d="M195.42 492.594l1.472 10.03 5.75-.033.483-10.89 16.84 1.54 1.254 8.6 3.22.21 2.13-8.91" stroke="#566B79"/><path d="M239.394 474.494l3.608 2.234 2.87-2.79-6.478.556zm14.886-.014l3.323 2.753 3.384-2.84-6.707.087zm-3.39 17.233l-.07-7.867-2.332-1.94s2.312-1.16 3.778-1.16c1.465 0 2.808.747 2.808.747l-2.76 2.584-1.425 7.636z" fill="#566B79"/><g stroke="#566B79"><path d="M1035.588 247.66s-16.158-2.3-20.838 6.31c-4.68 8.608-6.723 10.466-3.362 18.66 3.362 8.193 7.955 15.236 7.955 18.005 0 2.77.292 3.23.292 3.23l4.813-.32-.982-16.085s13.263-1.08 18.713-2.327c5.45-1.247 11.99-2.504 11.99-2.504l3.67 16.54 4.56-1.06-1.07-21.97s5.8-10.51 7.64-14.78c1.84-4.27 5.83-7.36 5.83-7.36s10.13 2.53 11.46 2.53c1.32 0 4.21 1.92 6.29-1.27s1.73-4.54-.7-6.23c-2.44-1.69-13.1-9.24-13.1-9.24l4.53-10.68-6.02 6.18s-10.56-.37-13.11 2.27c-2.55 2.63-16.19 22.02-20.55 23.05-4.36 1.03-8.05-2.99-8.05-2.99z"/><path d="M1026.288 277.257l3.575 15.758 4.353-.132-1.07-15.53 13.068-2.193 2.68 15.52 3.788-.15-.256-16.768m20.19-49.442c-1.356 0-2.366-.083-3.206-.164-2.74-.266-3.672-.532-8.906 2.02-6.84 3.337-18.536 25.027-24.996 22.855-6.46-2.17 6.245 13.38 20.217 7.52 13.97-5.85 14.454-25.18 19.085-26.47 4.632-1.29 7.646 1.24 7.646 1.24s-3.885-6.99-9.84-6.99z"/><path d="M1078.084 227.722s-6.362-.247-8.415 2.018c-2.06 2.265-14.93 24.518-21.78 24.518-6.85 0-12.5-4.053-12.5-4.053m-22.72 5.468s-27.01-33.676-51.04-27.066c-24.03 6.61-26.93 22.253-28.19 30.393-1.26 8.14-.4 12.74-3.83 16.475-3.44 3.734-8.01-4.097-8.01-4.097s-4.13 8.177 11.98 14.05c16.11 5.876 27.89-.185 31.28-4.45 3.39-4.264 12.63-19.704 24.6-23.057 11.96-3.35 21.74.53 21.74.53l.43-1.73s-16.96-4.88-30.21-1.04-17.31 20.33-27.25 23.53c-9.95 3.21-20.63 5.79-28.97-1.01 2.5 1.43 8.25 5.6 16.87-.6 8.61-6.2 12.56-21.93 26.28-26.52 13.72-4.58 41.94 2.88 41.94 3.75s-23.84-19.78-40-14.78c-16.17 5-24.41 16.68-27.38 22.73-2.97 6.05-6.03 15.25-10.84 15.25-4.82 0-8.66-1.99-8.66-1.99"/><path d="M1076.633 233.588l4.14 1.84-4.476.426.336-2.266z" fill="#C2C2C2"/><path d="M946.354 235.1s-2.84 5.02-11.025.762c-8.19-4.256-9.37-7.326-9.37-7.326s.74 7.238 4.7 11.273c3.95 4.03 6.56 5.14 6.56 5.14l-5.62-2.06s-11.68 9.61-16.67 6.27c-4.99-3.34-4.27-7.05-4.27-7.05s-3.64 8.3 5.21 16.27c8.85 7.96 16.07 6.39 16.07 6.39s1.62-8.14.81-8.14-13.27 4.91-20.28-6.84c11.97 6.84 23.33-3.19 23.33-3.19"/></g><g transform="translate(813 459)" stroke="#566B79"><path d="M49.84 40.495s-14.344 2.69-20.325 5.742c-5.98 3.053-10.954 7.77-10.263 16.882.69 9.11 1.088 16.05 4.256 19.51 3.167 3.47 16.89 7.19 23.474 7.19 6.583 0 43.62-1.03 55.804-8.97 12.184-7.94 15.29-9.54 13.538-21.26-1.752-11.72 2.804-21.58-16.43-22.84-19.237-1.26-20.316-.14-20.316-.14l-2.443-13-11.01 1.96 14.17-3.36-.32-5.14-37.913 2.15L43.62 24s20.972 2.37 20.972 1.603c0-.77-16.298 0-16.298 0l1.54 14.89zm10.723-23.59s-2.194-9.84.266-12.83c2.45-2.99 10.71-3.2 10.71-3.2l.34 6.9s-4.69.028-4.69 1.68c0 1.656.43 7.46.43 7.46l-7.07-.01zM18.34 63.075l-6.884-3.29-1.274-4.83L.112 56.05l1.63 29.817 10.688-.346.45-5.15 7.01-4.19m-8.345-16.44l1.318 20.12"/><circle cx="52" cy="67" r="8"/><circle cx="90" cy="62" r="8"/><circle cx="52" cy="67" r="11"/><circle cx="90" cy="62" r="11"/></g><g transform="translate(1241 225)" stroke="#566B79"><path d="M37.48 23.227L1.283 19.4.253 37.377l34.45 2.503 2.778-16.653zM10.975 21.32l-.537 16.344m9.682-15.728l-.573 16.3m10.288-14.86l-.812 14.86m41.25-7.166l31.97 3.176-.65 15.933-34.12-3.06 2.8-16.06zm8.654 1.52l-.607 14.73M91.9 33.95l.548 14.983"/><ellipse cx="53.5" cy="36" rx="10.5" ry="10"/><ellipse cx="52.5" cy="35" rx="7.5" ry="7"/><path d="M38.647 22.69s2.836-6.995 5.898-5.737c3.063 1.257 12.847 5.737 17.077 5.737 4.23 0 8.687-.983 9.772.183 1.086 1.166-2.984 30.324-6.378 31.89-3.394 1.566-26.987-.606-29.204-2.675-2.217-2.07-1.588-4.663-1.588-9.898 0-5.235 4.423-19.5 4.423-19.5zm20.093-.788l2.287-9.465m8.55 8.71L72.33 5.362"/><ellipse cx="73" cy="2.5" rx="3" ry="2.5"/><ellipse cx="61" cy="10.5" rx="3" ry="2.5"/></g></g></svg>